<?xml version="1.0" encoding="iso-8859-1"?>
<!-- Generator: Adobe Illustrator 18.1.1, SVG Export Plug-In . SVG Version: 6.00 Build 0)  -->
<svg version="1.1" id="Capa_1" xmlns="http://www.w3.org/2000/svg" xmlns:xlink="http://www.w3.org/1999/xlink" x="0px" y="0px"
	 viewBox="0 0 512.125 512.125" style="enable-background:new 0 0 512.125 512.125;" xml:space="preserve">
<g>
	<g>
		<path style="fill:#010002;" d="M512,107.79c-0.671-3-3.337-4.833-8-5.5c-57.333-6.667-145.667-10-265-10
			c-87.333,0-167,3.333-239,10l5,2.5c2,1,5.333,3.667,10,8s8.833,9.167,12.5,14.5s6.5,12.833,8.5,22.5c2,9.668,2.333,19.834,1,30.5
			h6.5c3,0,8.667,0.5,17,1.5s16.167,2.833,23.5,5.5c7.333,2.667,15.167,7.333,23.5,14c8.333,6.667,15.167,15,20.5,25l120-35l-8,78
			l-51,12c-4,1.334-7.667,3.334-11,6l-112,105c-3.333,2.666-5,6.334-5,11s1.667,8.5,5,11.5s7.167,4.666,11.5,5s8.167-1.166,11.5-4.5
			l84-79l103-24h-1l17-4l16,17c2.667,2.668,6,4,10,4l55,1c3.333,0,6.333-1.332,9-4c2.667-2.666,4-5.666,4-9c0-6-3.333-10-10-12
			l-41-140l171-50C510.667,113.29,512.667,110.79,512,107.79z M363,305.29h-22h-18l-29-33c-0.667-0.666-1.167-1-1.5-1H292
			c-6.667-8-15-10.666-25-8l-15,3l8-79l63-18L363,305.29z"/>
		<path style="fill:#010002;" d="M312,216.79c-6.667-2.333-13.167-2-19.5,1s-10.667,7.667-13,14s-1.833,12.667,1.5,19
			c3.336,6.334,8.169,10.668,14.5,13c6.335,2.334,12.668,2,19-1c6.336-3,10.669-7.833,13-14.5c2.333-6.667,2-13-1-19
			S318.667,219.123,312,216.79z"/>
	</g>
</g>
<g>
</g>
<g>
</g>
<g>
</g>
<g>
</g>
<g>
</g>
<g>
</g>
<g>
</g>
<g>
</g>
<g>
</g>
<g>
</g>
<g>
</g>
<g>
</g>
<g>
</g>
<g>
</g>
<g>
</g>
</svg>
