<?xml version="1.0" encoding="iso-8859-1"?>
<!-- Generator: Adobe Illustrator 19.0.0, SVG Export Plug-In . SVG Version: 6.00 Build 0)  -->
<svg version="1.1" id="Capa_1" xmlns="http://www.w3.org/2000/svg" xmlns:xlink="http://www.w3.org/1999/xlink" x="0px" y="0px"
	 viewBox="0 0 471.652 471.652" style="enable-background:new 0 0 471.652 471.652;" xml:space="preserve">
<g>
	<path d="M449.532,31.12l-9-9c-14.265-14.263-32.831-22.119-52.28-22.119c-21.602,0-42.208,9.858-56.536,27.046l-92.873,111.411
		c-25.165,30.188-70.197,75.22-100.384,100.384L27.048,331.716c-16.459,13.72-26.038,32.648-26.973,53.298
		c-0.936,20.65,6.895,40.366,22.045,55.518l9,9c14.263,14.262,32.829,22.118,52.279,22.119c0.003,0,0.003,0,0.006,0
		c21.598,0,42.203-9.858,56.53-27.046l92.874-111.411c25.165-30.188,70.197-75.22,100.384-100.384l111.411-92.873
		c16.459-13.72,26.038-32.648,26.973-53.298C472.513,65.988,464.683,46.272,449.532,31.12z M455.594,85.914
		c-0.729,16.104-8.271,30.925-21.233,41.732L322.949,220.52c-30.803,25.677-76.752,71.627-102.429,102.429L127.646,434.36
		c-11.279,13.531-27.404,21.291-44.241,21.291c-0.001,0-0.003,0-0.005,0c-15.177-0.001-29.726-6.192-40.966-17.433l-9-9
		c-11.935-11.934-18.105-27.376-17.376-43.48c0.729-16.104,8.271-30.925,21.233-41.732l111.411-92.874
		c30.803-25.677,76.752-71.627,102.429-102.429l92.873-111.411c11.28-13.531,27.407-21.291,44.247-21.291
		c15.176,0,29.725,6.191,40.966,17.433l9,9C450.152,54.368,456.323,69.81,455.594,85.914z"/>
	<path d="M267.826,163.826c-13.233,0-24,10.766-24,24v32c0,13.234,10.767,24,24,24s24-10.766,24-24v-32
		C291.826,174.592,281.059,163.826,267.826,163.826z M267.826,179.826c4.411,0,8,3.589,8,8h-16
		C259.826,183.415,263.415,179.826,267.826,179.826z M267.826,227.826c-4.411,0-8-3.589-8-8v-16h16v16
		C275.826,224.237,272.237,227.826,267.826,227.826z"/>
	<path d="M203.826,227.826c-13.233,0-24,10.766-24,24v32c0,13.234,10.767,24,24,24s24-10.766,24-24v-32
		C227.826,238.592,217.059,227.826,203.826,227.826z M203.826,243.826c4.411,0,8,3.589,8,8h-16
		C195.826,247.415,199.415,243.826,203.826,243.826z M203.826,291.826c-4.411,0-8-3.589-8-8v-16h16v16
		C211.826,288.237,208.237,291.826,203.826,291.826z"/>
</g>
<g>
</g>
<g>
</g>
<g>
</g>
<g>
</g>
<g>
</g>
<g>
</g>
<g>
</g>
<g>
</g>
<g>
</g>
<g>
</g>
<g>
</g>
<g>
</g>
<g>
</g>
<g>
</g>
<g>
</g>
</svg>
