<?xml version="1.0" encoding="iso-8859-1"?>
<!-- Generator: Adobe Illustrator 16.0.0, SVG Export Plug-In . SVG Version: 6.00 Build 0)  -->
<!DOCTYPE svg PUBLIC "-//W3C//DTD SVG 1.1//EN" "http://www.w3.org/Graphics/SVG/1.1/DTD/svg11.dtd">
<svg version="1.1" id="Capa_1" xmlns="http://www.w3.org/2000/svg" xmlns:xlink="http://www.w3.org/1999/xlink" x="0px" y="0px"
	 width="554.905px" height="554.905px" viewBox="0 0 554.905 554.905" style="enable-background:new 0 0 554.905 554.905;"
	 xml:space="preserve">
<g>
	<g>
		<path d="M350.45,502.799l77.753-87.057c3.146-3.528,5.709-10.223,5.709-14.956v-18.541c0-4.733-3.673-7.421-8.195-6.044
			l-18.188,1.062c-4.532,1.387-8.845,6.292-9.667,10.949l-2.047,11.676c-0.812,4.657-3.939,11.36-6.98,14.984L376.47,429.56
			l-78.785,90.844c-6.771,7.813-3.883,14.144,6.454,14.144s24.203-6.312,30.992-14.124L350.45,502.799z"/>
		<path d="M236.236,5.491c-9.533-8.186-23.887-7.095-32.072,2.438l-89.83,104.614c-2.878,3.347-4.714,7.458-5.298,11.829
			L86.42,295.092c-2.084,15.75,3.271,36.434,12.737,49.189L230.097,520.7c1.032,1.396,2.228,2.601,3.5,3.691l-1.1,1.157
			c-8.674,9.094-6.723,16.811-5.489,19.708c1.243,2.897,5.489,9.648,18.045,9.648h10.527c12.47,0,27.904-6.732,36.844-15.826
			c-0.201,0-0.401,0.038-0.593,0.038c-10.337,0-13.224-6.32-6.445-14.133l78.776-90.854l12.374-14.679
			c0.095-0.124,0.2-0.296,0.306-0.439l1.941-9.4c0.984-4.829-0.02-9.39-2.841-12.861c-3.395-4.16-9.122-5.986-14.937-4.743
			l-19.632,4.227c-8.271,1.76-15.587,9.037-17.403,17.271l-3.424,15.396c-0.641,2.916-3.327,7.889-5.422,10.098l-8.788,9.209
			l-2.572,2.696L191.79,301.843V191.032h117.102l-16.906,28.066c-2.726,4.523-1.272,10.404,3.251,13.129
			c1.549,0.937,3.241,1.377,4.925,1.377c3.241,0,6.406-1.645,8.204-4.628l5.776-9.591l57.575,9.113l83.729,37.571
			c1.271,0.574,2.601,0.841,3.911,0.841c3.653,0,7.144-2.104,8.73-5.651c2.171-4.819,0.01-10.471-4.81-12.632l-82.229-36.902
			l-31.604-50.949l4.141-6.875c2.725-4.523,1.271-10.404-3.252-13.129c-4.522-2.745-10.403-1.272-13.119,3.251l-11.083,18.398
			c-3.29-4.686-8.712-7.774-14.88-7.774H150.919l2.333-17.604l7.535-8.778c8.424,8.348,20.014,13.521,32.809,13.521
			c25.761,0,46.646-20.885,46.646-46.646c0-15.348-7.507-28.84-18.943-37.341l17.385-20.244
			C246.85,28.03,245.76,13.667,236.236,5.491z M355.327,206.524l-30.533-4.829l13.569-22.52L355.327,206.524z M199.354,387.647
			l72.56,96.591l-3.538,3.701l-3.347,3.499l-74.377-100.195L199.354,387.647z"/>
	</g>
</g>
<g>
</g>
<g>
</g>
<g>
</g>
<g>
</g>
<g>
</g>
<g>
</g>
<g>
</g>
<g>
</g>
<g>
</g>
<g>
</g>
<g>
</g>
<g>
</g>
<g>
</g>
<g>
</g>
<g>
</g>
</svg>
